<svg width="24" height="24" viewBox="0 0 24 24" fill="none" xmlns="http://www.w3.org/2000/svg">
<g clip-path="url(#clip0_13_6)">
<path d="M8.923 12C8.923 10.301 10.3 8.924 12 8.924C13.7 8.924 15.078 10.3 15.078 12C15.078 13.7 13.699 15.077 12 15.077C10.301 15.077 8.923 13.699 8.923 12ZM16.869 11.314C16.902 11.539 16.923 11.767 16.923 12C16.923 14.72 14.719 16.923 12.001 16.923C9.283 16.923 7.078 14.719 7.078 12C7.078 11.767 7.099 11.539 7.132 11.314C7.163 11.093 7.207 10.877 7.266 10.667H6V17.386C6 17.725 6.275 18 6.616 18H17.385C17.725 18 18 17.725 18 17.385V10.666H16.735C16.793 10.877 16.837 11.093 16.869 11.314ZM17.384 6H15.935C15.594 6 15.32 6.275 15.32 6.615V8.065C15.32 8.405 15.594 8.681 15.935 8.681H17.384C17.724 8.681 18 8.405 18 8.065V6.615C18 6.275 17.725 6 17.384 6ZM24 5V19C24 21.761 21.762 24 19 24H5C2.239 24 0 21.761 0 19V5C0 2.239 2.239 0 5 0H19C21.762 0 24 2.239 24 5ZM20 5.846C20 4.827 19.174 4 18.154 4H5.846C4.827 4 4 4.827 4 5.846V18.153C4 19.173 4.827 20 5.846 20H18.155C19.174 20 20 19.173 20 18.153V5.846Z" fill="#DE4E36"/>
</g>
<defs>
<clipPath id="clip0_13_6">
<rect width="24" height="24" fill="white"/>
</clipPath>
</defs>
</svg>
