<svg width="24" height="24" viewBox="0 0 24 24" fill="none" xmlns="http://www.w3.org/2000/svg">
<path d="M20.504 3.48459C18.3411 1.33173 15.3533 0 12.0527 0C5.45224 0 0.100506 5.32613 0.100506 11.8968C0.100506 14.0832 0.693088 16.1313 1.72629 17.892L1.69574 17.8359L0 24L6.33509 22.3457C7.98419 23.2573 9.95169 23.7935 12.0454 23.7935H12.0503C18.6507 23.7911 24 18.4642 24 11.8944C24 8.61064 22.6637 5.63826 20.5032 3.48539L20.504 3.48459ZM12.0503 21.7839H12.0462C10.1816 21.7839 8.43606 21.2717 6.94616 20.381L6.99119 20.4058L6.62856 20.1921L2.86964 21.1741L3.87229 17.5254L3.6359 17.1517C2.68311 15.6615 2.11706 13.8455 2.11706 11.8976C2.11706 6.43778 6.56424 2.0112 12.0494 2.0112C17.5347 2.0112 21.9818 6.43778 21.9818 11.8976C21.9818 17.3573 17.5363 21.7839 12.0503 21.7839ZM17.4985 14.3802C17.2002 14.2313 15.732 13.5134 15.4586 13.4134C15.1844 13.3141 14.985 13.2653 14.7856 13.563C14.5878 13.8599 14.0153 14.529 13.8409 14.7275C13.6672 14.9268 13.4919 14.9508 13.1936 14.8027C12.269 14.4298 11.4746 13.9328 10.7839 13.3205L10.7919 13.3277C10.1495 12.7355 9.59871 12.0576 9.15408 11.3101L9.13156 11.2685C8.95789 10.9716 9.11307 10.8107 9.26182 10.6627C9.39609 10.5298 9.56092 10.3153 9.70967 10.1425C9.82706 9.9992 9.92757 9.83513 10.004 9.65906L10.0088 9.64546C10.0434 9.57583 10.0635 9.495 10.0635 9.40856C10.0635 9.30372 10.0337 9.20608 9.98224 9.12285L9.98385 9.12525C9.90827 8.97639 9.31167 7.51341 9.06322 6.91797C8.8204 6.33854 8.57355 6.41777 8.39103 6.40816C8.21736 6.40016 8.01796 6.39856 7.81855 6.39856C7.50095 6.40656 7.21873 6.54902 7.02416 6.76911L7.02335 6.77071C6.37851 7.37975 5.97809 8.2385 5.97809 9.19008C5.97809 9.21088 5.97809 9.23249 5.97889 9.2533V9.2501C6.08422 10.4242 6.52645 11.4782 7.20667 12.3369L7.19703 12.3249C8.48672 14.2289 10.2058 15.7519 12.2231 16.7779L12.2987 16.8123C12.7393 17.0108 13.3038 17.2229 13.8811 17.4046L14.0009 17.4374C14.3563 17.5494 14.7655 17.6142 15.1901 17.6142C15.4337 17.6142 15.6733 17.5926 15.9049 17.5518L15.8799 17.555C16.7395 17.3766 17.4526 16.8603 17.8876 16.1553L17.8949 16.1417C18.0275 15.8487 18.1047 15.507 18.1047 15.1477C18.1047 14.9996 18.0919 14.8547 18.0669 14.7139L18.0693 14.7291C17.9954 14.605 17.796 14.5314 17.4969 14.3818L17.4985 14.3802Z" fill="white"/>
</svg>
